<svg width="3085" height="700" viewBox="0 0 3085 700" fill="none" xmlns="http://www.w3.org/2000/svg">
<g clip-path="url(#clip0_210_8)">
<path d="M1593.87 107.11L1487.99 214.22L1453.27 179.287L1524.59 107.057L1453.27 34.8271L1487.94 -0.0529785L1593.87 107.11ZM1281.38 107.11C1281.45 98.2971 1284.14 89.7032 1289.09 82.4112C1294.04 75.1193 1301.04 69.4558 1309.2 66.1346C1317.36 62.8135 1326.33 61.9833 1334.97 63.7486C1343.6 65.514 1351.52 69.796 1357.73 76.0547C1363.93 82.3135 1368.15 90.269 1369.84 98.9186C1371.53 107.568 1370.62 116.524 1367.23 124.659C1363.84 132.793 1358.11 139.742 1350.78 144.628C1343.44 149.514 1334.82 152.12 1326.01 152.117C1320.12 152.092 1314.3 150.907 1308.87 148.632C1303.44 146.356 1298.52 143.034 1294.37 138.855C1290.23 134.675 1286.95 129.721 1284.72 124.274C1282.49 118.827 1281.36 112.995 1281.38 107.11V107.11ZM1380.2 107.11C1380.27 98.2986 1382.95 89.706 1387.9 82.4149C1392.85 75.1237 1399.84 69.4602 1408.01 66.138C1416.17 62.8158 1425.13 61.9835 1433.77 63.746C1442.4 65.5085 1450.32 69.7869 1456.53 76.0422C1462.74 82.2974 1466.95 90.2497 1468.65 98.897C1470.34 107.544 1469.44 116.499 1466.05 124.634C1462.67 132.769 1456.95 139.72 1449.62 144.611C1442.28 149.502 1433.67 152.113 1424.86 152.117C1418.96 152.101 1413.13 150.924 1407.7 148.652C1402.26 146.381 1397.32 143.061 1393.17 138.881C1389.02 134.701 1385.73 129.743 1383.49 124.292C1381.26 118.84 1380.12 113.002 1380.14 107.11H1380.2ZM1058.27 107.11L1164.14 -4.52148e-05L1198.78 34.88L1127.51 107.11L1198.71 179.287L1164.07 214.167L1058.27 107.11ZM1182.67 107.11C1182.74 98.2951 1185.42 89.6981 1190.37 82.402C1195.32 75.106 1202.31 69.4375 1210.48 66.1107C1218.64 62.7839 1227.61 61.9477 1236.25 63.7075C1244.89 65.4673 1252.81 69.7443 1259.02 75.9996C1265.24 82.2549 1269.46 90.2087 1271.16 98.8587C1272.85 107.509 1271.96 116.468 1268.57 124.607C1265.19 132.747 1259.47 139.703 1252.13 144.598C1244.8 149.494 1236.19 152.11 1227.37 152.117C1221.47 152.103 1215.64 150.928 1210.2 148.658C1204.76 146.388 1199.82 143.068 1195.66 138.888C1191.51 134.708 1188.22 129.75 1185.98 124.297C1183.74 118.844 1182.6 113.004 1182.62 107.11H1182.67Z" fill="#F20505"/>
<path d="M2389.82 576.147L2445.3 318.56L2457 248.818H2581.17L2571.64 299.047C2585.94 280.319 2604.56 265.323 2625.91 255.334C2647.25 245.344 2670.7 240.658 2694.24 241.673C2815.75 241.673 2796.09 332.922 2786.35 377.929L2743.74 576.147H2619.55L2660.03 388.391C2664.91 365.596 2674.9 319.301 2624.08 319.301C2568.61 319.301 2556.24 376.676 2553.75 388.391L2513.32 576.147H2389.82Z" fill="white"/>
<path d="M3006.44 250.124H3085.02L3068.18 328.352H2988.25L2963.88 441.796C2955.82 482.234 2951.9 500.476 2999.37 500.476C3009.9 500.637 3020.43 500 3030.86 498.571L3014.31 575.459C2987.27 579.748 2959.92 581.719 2932.54 581.351C2833.44 581.351 2820.65 548.73 2834.26 485.48L2868.1 328.352H2805.39L2822.24 250.124H2886.96L2897.87 199.277L3027.49 152.311L3006.44 250.124Z" fill="white"/>
<path d="M126.36 370.713H245.926C248.626 351.835 255.314 302.276 201.213 302.276C147.111 302.276 131.054 355.028 126.36 370.713ZM353.988 437.244H116.338C112.615 454.887 99.2745 516.778 162.604 516.778C177.527 517.617 192.292 513.359 204.476 504.703C216.659 496.048 225.539 483.508 229.657 469.142H345.182C318.255 551.323 233.504 583.222 147.553 583.222C32.0628 583.222 -17.6799 525.882 5.6298 417.643C29.2042 308.151 98.5864 237.05 220.746 237.05C313.173 237.05 348.094 274.259 360.552 320.519C369.039 348.553 366.251 379.869 353.935 437.244H353.988Z" fill="white"/>
<path d="M449.202 405.293L384.513 248.8H529.083L549.781 349.188L615.564 248.8H742.347L606.988 405.293L682.475 576.147H535.894L509.796 454.852L428.909 576.129H300.803L449.202 405.293Z" fill="white"/>
<path d="M848.203 411.168C842.556 437.244 830.346 509.58 887.023 509.58C939.218 509.58 961.84 453.511 972.392 404.623C979.15 373.306 985.997 310.745 933.166 310.745C869.819 310.745 852.297 392.255 848.203 411.168ZM759.005 248.853H880.477L871.883 295.148C886.767 277.754 905.289 263.84 926.141 254.389C946.994 244.939 969.668 240.182 992.561 240.455C1048.04 240.455 1128.43 271.807 1099.51 406.069C1072.16 533.222 988.855 582.745 913.65 582.745C854.873 582.745 834.739 553.423 823.764 537.086L788.685 700.124H664.513L750.164 302.4C756.587 266.39 756.746 262.527 759.005 248.8V248.853Z" fill="white"/>
<path d="M1240.18 370.713H1359.73C1362.48 351.835 1369.2 302.276 1315.07 302.276C1260.93 302.276 1244.93 355.028 1240.18 370.713ZM1462.23 437.244H1224.58C1220.8 454.887 1207.48 516.778 1270.86 516.778C1285.79 517.64 1300.57 513.391 1312.76 504.731C1324.94 496.072 1333.82 483.52 1337.92 469.142H1453.5C1426.6 551.323 1341.8 583.222 1255.97 583.222C1140.39 583.222 1090.72 525.882 1114.01 417.643C1137.57 308.116 1207.06 236.997 1329.18 236.997C1421.54 236.997 1456.5 274.206 1469.02 320.466C1477.39 348.553 1474.6 379.869 1462.23 437.244Z" fill="white"/>
<path d="M1656.01 511.556C1700.87 511.556 1728.36 467.184 1740.29 411.168C1752.15 356.475 1743.55 313.356 1699.93 313.356C1644.49 313.356 1622.29 382.428 1615.75 413.091C1609.01 444.442 1601.14 511.556 1656.01 511.556ZM1804.82 105.381H1928.96L1845.14 494.601C1839.25 521.948 1834.8 548.712 1831.02 576.129H1713.5L1721.16 527.823C1706.18 546.122 1687.17 560.708 1665.61 570.441C1644.05 580.174 1620.54 584.79 1596.9 583.927C1482.65 583.927 1469.98 492.678 1487.22 412.474C1502.25 342.696 1528.44 310.145 1556.04 285.956C1588.63 256.969 1630.87 241.173 1674.49 241.655C1692.44 239.99 1710.5 243.383 1726.61 251.449C1742.73 259.516 1756.27 271.934 1765.7 287.297L1804.82 105.381Z" fill="white"/>
<path d="M1943.9 194.001L1962.67 106.687H2089.44L2070.63 194.001H1943.9Z" fill="white"/>
<path d="M1862.98 576.129L1933.42 248.8H2057.52L1987.1 576.129H1862.98Z" fill="white"/>
<path d="M2173.52 370.713H2293.02C2295.77 351.835 2302.48 302.276 2248.39 302.276C2194.31 302.276 2178.27 355.028 2173.52 370.713ZM2395.61 437.244H2157.96C2154.15 454.887 2140.81 516.778 2204.19 516.778C2219.11 517.62 2233.88 513.363 2246.06 504.707C2258.25 496.051 2267.13 483.51 2271.24 469.142H2386.79C2359.86 551.323 2275.02 583.222 2189.16 583.222C2073.67 583.222 2023.96 525.882 2047.23 417.643C2070.75 308.116 2140.22 236.997 2262.38 236.997C2354.81 236.997 2389.7 274.206 2402.22 320.466C2410.73 348.553 2407.96 379.869 2395.66 437.244H2395.61Z" fill="white"/>
</g>
<defs>
<clipPath id="clip0_210_8">
<rect width="3085" height="700" fill="white"/>
</clipPath>
</defs>
</svg>
